<?xml version="1.0" encoding="UTF-8"?>
<svg width="44px" height="44px" viewBox="0 0 44 44" version="1.1" xmlns="http://www.w3.org/2000/svg" xmlns:xlink="http://www.w3.org/1999/xlink">
    <!-- Generator: Sketch 47 (45396) - http://www.bohemiancoding.com/sketch -->
    <title>Facebook_Color</title>
    <desc>Created with Sketch.</desc>
    <defs></defs>
    <g id="Page-1" stroke="none" stroke-width="1" fill="none" fill-rule="evenodd">
        <g id="ds-landing-v3" transform="translate(-601.000000, -947.000000)">
            <g id="Facebook" transform="translate(601.842459, 947.735425)">
                <path d="M0,21.5570882 C0,9.65143657 9.65143657,0 21.5570882,0 C33.4627399,0 43.1141765,9.65143657 43.1141765,21.5570882 C43.1141765,33.4627399 33.4627399,43.1141765 21.5570882,43.1141765 C9.65143657,43.1141765 0,33.4627399 0,21.5570882 Z" id="back" fill="#FFFFFF"></path>
                <path d="M23.0854455,33.5136165 L23.0854455,21.7854224 L26.32294,21.7854224 L26.7519779,17.7438217 L23.0854455,17.7438217 L23.0909459,15.7209617 C23.0909459,14.66685 23.1911006,14.1020329 24.7051095,14.1020329 L26.7290592,14.1020329 L26.7290592,10.0599745 L23.4911063,10.0599745 C19.6018042,10.0599745 18.2328707,12.0205857 18.2328707,15.3177171 L18.2328707,17.7442794 L15.8085314,17.7442794 L15.8085314,21.7858801 L18.2328707,21.7858801 L18.2328707,33.5136165 L23.0854455,33.5136165 Z" id="Shape" fill="#1E5E96"></path>
            </g>
        </g>
    </g>
</svg>