<?xml version="1.0" encoding="UTF-8"?>
<svg width="44px" height="44px" viewBox="0 0 44 44" version="1.1" xmlns="http://www.w3.org/2000/svg" xmlns:xlink="http://www.w3.org/1999/xlink">
    <!-- Generator: Sketch 47 (45396) - http://www.bohemiancoding.com/sketch -->
    <title>Twitter_Color</title>
    <desc>Created with Sketch.</desc>
    <defs></defs>
    <g id="Page-1" stroke="none" stroke-width="1" fill="none" fill-rule="evenodd">
        <g id="ds-landing-v3" transform="translate(-666.000000, -948.000000)">
            <g id="Twitter" transform="translate(666.513724, 948.453994)">
                <path d="M0,21.5570882 C0,9.65143657 9.65143657,0 21.5570882,0 C33.4627399,0 43.1141765,9.65143657 43.1141765,21.5570882 C43.1141765,33.4627399 33.4627399,43.1141765 21.5570882,43.1141765 C9.65143657,43.1141765 0,33.4627399 0,21.5570882 Z" id="back" fill="#FFFFFF"></path>
                <path d="M20.9114558,17.5218713 L20.956692,18.2677952 L20.2027551,18.1764576 C17.4584249,17.8263301 15.0609056,16.638941 13.025276,14.6447364 L12.0300793,13.6552455 L11.7737408,14.3859464 C11.2309062,16.0148006 11.5777172,17.7349925 12.7086225,18.8919356 C13.311772,19.531299 13.1760634,19.6226366 12.1356305,19.2420632 C11.7737408,19.1202797 11.4570873,19.0289421 11.4269298,19.0746109 C11.3213787,19.1811714 11.6832684,20.5664586 11.9697644,21.1144844 C12.3618116,21.8756312 13.1609847,22.6215551 14.0355514,23.0630202 L14.7744096,23.4131478 L13.8998428,23.4283707 C13.0554335,23.4283707 13.025276,23.4435936 13.1157485,23.7632753 C13.4173232,24.7527662 14.6085435,25.8031488 15.9354724,26.2598369 L16.8703541,26.5795185 L16.0561023,27.0666525 C14.8498033,27.7669076 13.4324019,28.1627039 12.0150006,28.1931498 C11.3364574,28.2083727 10.7785441,28.2692645 10.7785441,28.3149333 C10.7785441,28.4671627 12.6181501,29.3196471 13.6887405,29.6545517 C16.9005116,30.6440426 20.7154322,30.2178004 23.5803924,28.5280544 C25.6160219,27.3254424 27.6516515,24.9354414 28.601612,22.6215551 C29.1142891,21.3884972 29.6269662,19.1355026 29.6269662,18.0546741 C29.6269662,17.354419 29.6722024,17.2630814 30.5166117,16.4258199 C31.01421,15.938686 31.4816509,15.4058832 31.5721233,15.2536538 C31.7229107,14.964418 31.7078319,14.964418 30.9388163,15.2232079 C29.6571236,15.679896 29.4761788,15.6190043 30.1094858,14.9339721 C30.5769266,14.4468382 31.1348399,13.5639079 31.1348399,13.3051179 C31.1348399,13.2594491 30.9086588,13.3355638 30.6523203,13.4725702 C30.380903,13.6247996 29.7777535,13.8531437 29.3253914,13.9901501 L28.5111396,14.24894 L27.7722814,13.7465831 C27.3651555,13.4725702 26.7921635,13.1681115 26.4905887,13.0767739 C25.7215731,12.8636528 24.5454316,12.8940987 23.8518096,13.1376656 C21.9669674,13.8226978 20.7757472,15.5885584 20.9114558,17.5218713 Z" id="Shape" fill="#1E5E96"></path>
            </g>
        </g>
    </g>
</svg>