<?xml version="1.0" encoding="UTF-8"?>
<svg width="45px" height="44px" viewBox="0 0 45 44" version="1.1" xmlns="http://www.w3.org/2000/svg" xmlns:xlink="http://www.w3.org/1999/xlink">
    <!-- Generator: Sketch 47 (45396) - http://www.bohemiancoding.com/sketch -->
    <title>Youtube Copy_Color</title>
    <desc>Created with Sketch.</desc>
    <defs></defs>
    <g id="Page-1" stroke="none" stroke-width="1" fill="none" fill-rule="evenodd">
        <g id="ds-landing-v3" transform="translate(-795.000000, -948.000000)">
            <g id="Youtube-Copy" transform="translate(795.856254, 948.453994)">
                <path d="M0,21.5570882 C0,9.65143657 9.66538373,0 21.5882401,0 C33.5110965,0 43.1764802,9.65143657 43.1764802,21.5570882 C43.1764802,33.4627399 33.5110965,43.1141765 21.5882401,43.1141765 C9.66538373,43.1141765 0,33.4627399 0,21.5570882 Z" id="back" fill="#FFFFFF"></path>
                <path d="M32.8242597,17.2178945 C32.8242597,17.2178945 32.5993474,15.5987424 31.9102392,14.885728 C31.0357399,13.9494835 30.055611,13.9450777 29.606505,13.8907388 C26.3887503,13.6528226 21.5621182,13.6528226 21.5621182,13.6528226 L21.5520583,13.6528226 C21.5520583,13.6528226 16.7254262,13.6528226 13.5076715,13.8907388 C13.0578469,13.9450777 12.0784365,13.9494835 11.2032188,14.885728 C10.5141105,15.5987424 10.2899168,17.2178945 10.2899168,17.2178945 C10.2899168,17.2178945 10.0599745,19.1197558 10.0599745,21.0208828 L10.0599745,22.8037859 C10.0599745,24.7056472 10.2899168,26.6067741 10.2899168,26.6067741 C10.2899168,26.6067741 10.5141105,28.2259263 11.2032188,28.9389407 C12.0784365,29.8751851 13.2274293,29.8458128 13.7390509,29.9434759 C15.5785891,30.124116 21.5570882,30.1799235 21.5570882,30.1799235 C21.5570882,30.1799235 26.3887503,30.1725804 29.606505,29.9346642 C30.055611,29.879591 31.0357399,29.8751851 31.9102392,28.9389407 C32.5993474,28.2259263 32.8242597,26.6067741 32.8242597,26.6067741 C32.8242597,26.6067741 33.054202,24.7056472 33.054202,22.8037859 L33.054202,21.0208828 C33.054202,19.1197558 32.8242597,17.2178945 32.8242597,17.2178945 L32.8242597,17.2178945 Z" id="Youtube" fill="#1E5E96"></path>
                <polygon id="Path" fill="#FFFFFF" points="19.1829343 24.9641241 19.1822157 18.3619485 25.3949685 21.6744181"></polygon>
            </g>
        </g>
    </g>
</svg>